<svg width="644" height="475" viewBox="0 0 644 475" fill="none" xmlns="http://www.w3.org/2000/svg">
<path d="M644 469.631H0V475H644V469.631Z" fill="#85848B"/>
<path d="M510.215 374.833C510.215 378.963 489.114 391.002 464.05 391.002C438.985 391.002 419.455 378.963 419.455 374.833C419.455 370.703 439.77 372.033 464.86 372.033C489.949 372.033 510.215 370.696 510.215 374.833Z" fill="#504F60"/>
<path opacity="0.2" d="M510.215 374.833C510.215 378.963 489.114 391.002 464.05 391.002C438.985 391.002 419.455 378.963 419.455 374.833" fill="black"/>
<path d="M257.795 299.053C261.863 299.648 266.084 300.026 269.981 298.584C270.594 298.367 271.269 297.884 271.208 297.184C271.164 296.929 271.07 296.69 270.932 296.484C269.463 293.971 268.229 291.289 267.25 288.483C267.212 288.337 267.132 288.209 267.023 288.119C266.896 288.067 266.757 288.067 266.631 288.119C264.833 288.658 263.28 289.981 261.495 290.548C260.585 290.833 259.634 290.914 258.697 290.786C257.887 290.681 256.783 289.918 256.046 290.016C256.464 293.075 257.482 295.931 257.795 299.053Z" fill="#DF6B57"/>
<path d="M334.732 291.304C337.413 289.204 340.193 286.999 341.776 283.758C341.889 283.564 341.954 283.34 341.966 283.107C341.939 282.878 341.861 282.662 341.739 282.477C340.231 279.742 338.29 277.352 336.014 275.428C334.827 276.385 333.754 277.515 332.824 278.788C332.149 279.6 330.283 280.888 330.265 282.127C330.265 282.827 330.977 283.639 331.308 284.227C331.756 284.983 332.179 285.753 332.584 286.537C332.817 286.922 334.947 291.15 334.732 291.304Z" fill="#DF6B57"/>
<path d="M273.742 308.426C273.79 309.147 273.616 309.864 273.251 310.455C272.965 310.784 272.61 311.025 272.22 311.155C266.532 313.479 259.949 310.582 254.273 312.87C253.107 313.339 252.003 314.018 250.831 314.466C249.434 314.946 247.992 315.237 246.536 315.334C244.53 315.551 242.511 315.691 240.498 315.754C238.969 315.878 237.433 315.724 235.946 315.299C235.202 315.082 234.507 314.689 233.905 314.145C233.304 313.601 232.809 312.919 232.454 312.142C232.146 311.447 232.084 310.642 232.283 309.896C232.372 309.64 232.498 309.403 232.657 309.196C233.041 308.703 233.493 308.285 233.994 307.957L236.087 306.417C237.068 305.625 238.134 304.981 239.259 304.499C240.087 304.191 240.965 304.058 241.805 303.799C244.744 302.819 246.99 300.159 249.076 297.604L251.923 294.139C252.189 293.758 252.527 293.449 252.911 293.236C253.306 293.086 253.726 293.04 254.138 293.103C256.904 293.328 259.574 294.349 261.9 296.071C262.494 296.58 263.136 297.012 263.814 297.359C265.483 298.101 267.625 297.541 269.165 296.603C269.895 296.155 269.735 295.903 270.042 295.105C270.349 294.307 271.097 293.796 271.748 294.524C271.944 294.776 272.083 295.079 272.153 295.406C272.766 297.716 272.533 300.201 272.533 302.623C272.515 303.001 272.557 303.381 272.656 303.743C272.813 304.108 273 304.455 273.214 304.779C273.258 304.864 273.297 304.953 273.331 305.045C273.706 306.117 273.847 307.277 273.742 308.426Z" fill="#514E7F"/>
<path d="M273.742 308.426C273.79 309.147 273.616 309.864 273.251 310.455C272.965 310.784 272.61 311.025 272.22 311.155C266.532 313.479 259.949 310.581 254.273 312.87C253.107 313.339 252.003 314.018 250.831 314.466C249.434 314.946 247.992 315.237 246.536 315.334C244.53 315.551 242.511 315.691 240.498 315.754C238.969 315.878 237.433 315.724 235.946 315.299C235.202 315.082 234.507 314.689 233.905 314.145C233.304 313.601 232.809 312.919 232.454 312.142C232.146 311.447 232.084 310.642 232.283 309.896C232.372 309.64 232.498 309.403 232.657 309.196C232.988 309.987 233.227 311.036 233.436 311.414C233.718 311.975 234.101 312.46 234.56 312.838C235.02 313.215 235.544 313.477 236.099 313.605C236.929 313.664 237.762 313.542 238.553 313.248C243.707 311.792 249.187 311.771 254.138 309.566C255.838 308.804 257.458 307.789 259.243 307.327C261.029 306.865 262.925 306.991 264.765 306.816C267.674 306.55 270.49 305.549 273.355 305.024C273.725 306.105 273.858 307.273 273.742 308.426Z" fill="#464353"/>
<path d="M347.758 290.877C347.488 293.341 346.12 295.462 344.617 297.261C343.113 299.06 341.414 300.677 340.217 302.749C338.745 305.318 338.082 308.503 336.168 310.672C335.433 311.462 334.607 312.133 333.713 312.667C332.712 313.341 331.653 313.897 330.553 314.326C327.694 315.369 324.614 315.131 321.626 314.879C320.656 314.869 319.695 314.658 318.791 314.256C318.379 314.018 317.985 313.742 317.613 313.43C316.864 312.904 316.233 312.185 315.772 311.33C315.546 310.866 315.482 310.321 315.594 309.805C315.765 309.236 316.058 308.726 316.447 308.321C317.12 307.523 317.841 306.781 318.607 306.102C319.657 305.328 320.604 304.385 321.417 303.302C321.916 302.446 322.283 301.499 322.503 300.502C322.938 298.755 323.203 296.96 323.295 295.147C323.291 293.943 323.4 292.741 323.62 291.563C324.074 289.715 325.277 288.063 325.142 286.152C325.087 285.879 325.108 285.592 325.203 285.333C325.346 285.131 325.545 284.99 325.767 284.934C326.705 284.508 327.694 284.246 328.7 284.157C329.205 284.117 329.711 284.206 330.182 284.417C330.654 284.627 331.078 284.955 331.425 285.375C331.842 285.949 332.118 286.775 332.732 286.999C333.036 287.094 333.355 287.108 333.664 287.041C335.174 286.866 336.769 286.649 337.959 285.536C338.509 284.973 338.952 284.286 339.258 283.519C339.564 282.752 339.728 281.92 339.739 281.077C339.739 280.44 339.487 279.775 340.352 279.677C341.003 279.579 341.518 280.377 341.849 280.867C343.046 282.694 344.273 284.605 344.721 286.831C344.895 286.754 345.08 286.714 345.267 286.712C345.65 286.708 346.028 286.81 346.368 287.009C346.709 287.207 347.003 287.497 347.224 287.853C347.713 288.756 347.902 289.829 347.758 290.877Z" fill="#514E7F"/>
<path d="M347.758 290.877C347.488 293.341 346.12 295.462 344.617 297.261C343.113 299.06 341.414 300.677 340.217 302.749C338.745 305.318 338.082 308.503 336.168 310.673C335.433 311.462 334.607 312.133 333.713 312.667C332.712 313.341 331.653 313.897 330.553 314.326C327.694 315.369 324.614 315.131 321.626 314.879C320.656 314.869 319.695 314.658 318.791 314.256C318.379 314.018 317.985 313.742 317.613 313.43C316.864 312.904 316.233 312.185 315.772 311.331C316.347 311.015 316.975 310.843 317.613 310.827C318.938 310.911 319.908 312.338 321.178 312.779C322.988 313.402 324.792 311.946 326.626 311.449C327.823 311.127 329.081 311.211 330.265 310.75C331.252 310.314 332.164 309.684 332.959 308.888C334.048 307.999 335.018 306.933 335.836 305.724C336.516 304.514 337.082 303.226 337.524 301.881C338.492 299.302 339.633 296.813 340.935 294.433C341.128 294.056 341.361 293.708 341.628 293.397C341.917 293.096 342.242 292.886 342.567 292.62C343.794 291.563 344.304 289.82 344.733 288.112C344.849 287.593 345.012 287.089 345.218 286.607C345.601 286.603 345.978 286.705 346.319 286.904C346.66 287.102 346.954 287.392 347.175 287.748C347.703 288.672 347.911 289.788 347.758 290.877Z" fill="#464353"/>
<path d="M219.097 72.637C220.624 73.9426 221.881 75.6154 222.778 77.5369C223.637 79.4548 228.589 94.3364 228.3 96.4994C229.914 94.6444 236.277 94.3434 237.909 92.4885C238.59 91.7115 242.265 87.8336 242.818 86.9306C243.37 86.0276 247.469 84.1307 247.917 83.1787C249.592 79.7558 236.038 66.7852 237.774 63.4043C237.87 63.2489 237.92 63.0623 237.915 62.8723C237.876 62.7127 237.797 62.5694 237.688 62.4593C236.578 61.1643 235.105 60.3593 233.767 59.4004C232.43 58.4414 231.141 57.1044 230.779 55.3405C229.504 56.0103 228.333 56.9136 227.313 58.0144C224.826 60.4457 222.381 62.926 219.98 65.4552C219.042 66.4492 217.225 67.7721 216.79 69.1931C216.274 70.7191 218.201 71.804 219.097 72.637Z" fill="#A1616A"/>
<path d="M241.038 67.1282C238.959 68.7224 237.015 70.5363 235.234 72.546C233.553 74.443 231.957 76.6409 231.552 79.2938C231.381 80.3368 231.405 81.3938 231.264 82.4508C230.65 87.0356 227.178 90.3955 225.644 94.6864C225.199 96.0108 224.872 97.3826 224.668 98.7813C224.237 101.433 224.001 104.121 223.962 106.817C223.926 109.428 226.171 111.227 226.993 113.663C227.816 116.099 228.037 118.605 228.454 121.104C229.239 125.822 230.681 130.371 232.135 134.893C235.16 144.427 244.965 170.781 247.99 180.322C257.261 177.669 281.939 171.572 290.149 165.979C292.886 164.118 271.159 143.111 274.086 141.662C274.253 141.632 274.412 141.559 274.55 141.447C274.688 141.335 274.801 141.188 274.881 141.018C274.961 140.847 275.005 140.658 275.009 140.465C275.014 140.272 274.979 140.08 274.908 139.905C271.981 125.304 262.826 113.306 258.673 99.0893C257.231 94.1544 254.641 89.9405 252.678 85.2507C250.898 81.0018 249.947 76.3049 247.818 72.266C247.417 71.4339 246.892 70.6878 246.266 70.0611C245.735 69.5966 245.161 69.1999 244.554 68.8781C243.339 68.2061 242.21 67.8072 241.038 67.1282Z" fill="#514E7F"/>
<path d="M219.588 70.978C227.602 70.978 234.099 63.5663 234.099 54.4235C234.099 45.2807 227.602 37.869 219.588 37.869C211.573 37.869 205.076 45.2807 205.076 54.4235C205.076 63.5663 211.573 70.978 219.588 70.978Z" fill="#A1616A"/>
<path d="M234.35 62.2003C235.074 61.4393 235.982 60.9463 236.956 60.7864C237.93 60.6264 238.923 60.807 239.805 61.3043C240.787 61.8853 241.646 63.0613 241.425 64.2932L248.622 64.4192C249.768 64.3835 250.913 64.5033 252.034 64.7762C253.162 65.0564 254.169 65.7768 254.881 66.8132C254.967 66.9462 255.065 67.1072 255.212 67.1282C255.332 67.1303 255.449 67.0858 255.543 67.0022C256.651 66.3687 257.898 66.125 259.127 66.3022C263.017 66.5892 266.612 68.8081 269.662 71.58C270.212 72.0113 270.638 72.6174 270.889 73.323C271.141 74.254 270.84 75.4229 271.503 76.0879C271.503 83.7877 273.822 90.9835 275.368 98.4873C275.644 99.8243 276.767 101.007 277.546 102.057C278.509 103.221 279.295 104.56 279.872 106.019C281.185 109.911 279.375 114.489 280.651 118.395C281.191 120.047 282.234 121.405 283.105 122.84C284.254 124.497 284.98 126.483 285.204 128.579C285.259 129.517 285.155 130.462 285.204 131.379C285.286 132.641 285.492 133.887 285.817 135.096C286.341 137.355 286.889 139.611 287.462 141.865C288.394 145.505 289.609 149.432 292.469 151.371C285.566 152.708 278.289 154.017 271.711 151.28C270.794 150.923 269.923 150.426 269.122 149.803C266.747 147.871 265.6 144.567 264.575 141.445C263.434 137.945 262.274 134.382 262.041 130.658C262.043 129.474 261.897 128.295 261.606 127.159C260.937 125.129 259.151 123.904 257.531 122.777C255.702 121.633 254.045 120.163 252.623 118.423C251.917 117.546 251.376 116.514 251.034 115.389C250.693 114.264 250.556 113.072 250.635 111.885C250.757 110.73 251.156 109.617 251.193 108.455C251.23 107.293 250.776 105.963 249.8 105.655C244.775 103.919 242.376 97.1293 241.259 91.2775C240.777 88.253 240.562 85.1812 240.615 82.1078L240.547 76.1369C239.854 75.4172 239.296 74.5439 238.908 73.5704C238.52 72.5969 238.309 71.5434 238.29 70.4741C238.356 69.8502 238.346 69.2187 238.259 68.5981C238.016 67.8395 237.621 67.1563 237.105 66.6032C235.996 65.3042 235.067 63.8194 234.35 62.2003Z" fill="#464353"/>
<path d="M218.894 81.1278C218.729 82.9757 219.097 84.8727 218.735 86.6856C218.594 87.3856 218.348 88.0856 218.17 88.7366C217.626 91.346 217.862 94.0879 218.839 96.5274C219.815 98.9428 220.984 101.251 222.33 103.422C222.786 104.163 223.161 104.965 223.447 105.809C223.679 106.696 223.823 107.609 223.876 108.532C224.232 112.239 224.802 115.915 225.582 119.536C226.269 122.672 234.074 149.481 235.89 151.966C236.22 152.516 236.72 152.904 237.289 153.051C237.7 153.068 238.108 152.972 238.48 152.771L242.161 151.161C242.474 151.052 242.764 150.871 243.014 150.629C243.359 150.169 243.546 149.582 243.542 148.977C243.805 145.561 235.982 118.563 234.988 115.336C231.982 105.592 227.981 96.1984 226.024 86.1116C225.478 83.3117 225.19 78.9998 223.392 76.7669C222.649 75.8429 222.901 76.2349 222.011 76.7179C221.562 76.9405 221.127 77.2001 220.71 77.4949C220.19 77.9079 219.756 78.4484 219.442 79.0769C219.128 79.7055 218.941 80.4061 218.894 81.1278Z" fill="#464353"/>
<path d="M230.067 99.6143C231.055 105.571 232.074 111.514 233.086 117.471L247.493 113.166C247.61 111.444 246.806 109.848 246.266 108.266C244.953 104.507 244.922 100.321 243.861 96.4574C243.057 93.5174 241.658 90.8155 240.903 87.8546C240.468 86.1326 240.247 84.3547 239.817 82.6117C239.357 80.9001 238.791 79.2277 238.124 77.6069C237.315 75.2563 236.26 73.0258 234.982 70.9641C233.142 71.748 231.178 72.658 230.129 74.555C229.591 75.6238 229.284 76.8236 229.233 78.0549C228.981 81.7438 230.153 85.4537 229.767 89.1216C229.369 92.6146 229.47 96.1583 230.067 99.6143Z" fill="#DF6B57"/>
<path d="M247.732 178.852C248.542 182.352 247.37 186.034 246.413 189.499C244.972 194.718 243.99 200.087 243.48 205.528C243.418 206.913 243.174 208.279 242.756 209.581C242.302 210.75 241.529 211.737 241.001 212.85C239.553 215.776 239.59 219.346 239.903 222.692C240.112 224.897 240.425 227.095 240.811 229.265C241.284 231.918 241.867 234.69 241.186 237.279C242.327 236.992 243.1 238.679 243.026 240.002C242.953 241.325 242.578 242.802 243.137 243.943C244.548 244.531 244.56 246.743 244.517 248.458C244.541 251.432 244.87 254.392 245.499 257.278C247.634 268.991 249.9 280.671 252.297 292.319C257.482 294.153 263.538 296.064 268.484 293.523C269.404 293.054 270.324 292.305 270.533 291.171C270.587 290.56 270.52 289.943 270.337 289.365L267.993 279.635C267.422 277.283 266.852 274.854 267.152 272.44C267.379 270.641 268.066 268.702 267.293 267.113C267.03 266.567 266.612 266.14 266.305 265.622C265.078 263.571 265.723 260.827 265.821 258.342C265.859 257.784 265.826 257.223 265.723 256.676C265.555 256.037 265.32 255.424 265.023 254.849C263.086 250.559 262.156 245.769 262.323 240.947C262.397 240.332 262.322 239.706 262.109 239.134C261.96 238.899 261.826 238.651 261.71 238.392C261.618 237.943 261.664 237.472 261.839 237.056C261.135 236.447 260.501 235.742 259.949 234.956C260.289 234.714 260.577 234.388 260.79 234.001C261.004 233.614 261.138 233.177 261.181 232.723C261.225 232.268 261.178 231.808 261.043 231.378C260.908 230.947 260.689 230.558 260.403 230.238C260.653 230.18 260.884 230.045 261.071 229.846C261.258 229.648 261.393 229.394 261.461 229.113C261.529 228.833 261.527 228.536 261.457 228.256C261.386 227.977 261.248 227.725 261.059 227.529C260.759 227.291 260.36 227.186 260.145 226.829C259.814 226.311 260.084 225.59 260.354 225.037L261.783 222.09C262.851 219.899 263.09 217.19 264.238 215.09C265.882 212.031 266.956 208.622 268.017 205.248L272.147 192.25L274.926 195.001C275.852 195.808 276.628 196.816 277.209 197.969C277.604 199.107 277.854 200.305 277.951 201.524C278.97 208.58 282.86 214.698 284.302 221.649C284.621 223.196 284.836 224.82 285.615 226.143C285.894 226.549 286.144 226.98 286.363 227.431C286.566 228.119 286.672 228.84 286.676 229.566C286.805 230.987 287.2 232.361 287.836 233.593C288.471 234.825 289.331 235.886 290.358 236.706C291.726 237.776 293.426 238.511 294.168 240.205C294.317 240.73 294.523 241.231 294.782 241.696C295.444 242.606 296.874 242.711 297.156 243.852C297.316 244.489 297.021 245.252 297.334 245.812C297.512 246.071 297.747 246.272 298.015 246.393L302.01 248.668C306.476 251.216 308.759 257.068 312.054 261.331C313.192 262.719 314.199 264.239 315.06 265.867C316.484 268.772 317.14 272.419 319.546 274.266C320.192 274.649 320.781 275.148 321.288 275.743C322.043 276.877 321.767 278.466 321.834 279.894C321.902 281.322 322.859 283.023 324.049 282.589C323.632 284.319 323.632 286.145 324.049 287.874C329.275 287.568 334.259 285.265 338.199 281.336C339.364 280.174 340.487 278.69 340.499 276.926C340.517 276.622 340.458 276.318 340.328 276.051C340.092 275.707 339.781 275.439 339.426 275.274C335.689 272.965 334.566 267.61 332.676 263.263C331.026 259.427 328.584 256.123 326.541 252.56C322.098 244.895 319.067 235.621 312.348 230.56C310.87 229.447 309.152 228.46 308.409 226.619C307.998 225.59 307.949 224.414 307.624 223.35C307.299 222.286 306.519 221.25 305.525 221.25C306.078 219.71 305.967 217.834 306.004 216.168C306.042 215.429 305.967 214.687 305.783 213.977C305.528 213.213 305.196 212.485 304.795 211.807C303.042 208.421 302.166 204.538 302.267 200.607C302.316 198.585 302.629 196.499 302.096 194.567C301.826 193.594 301.353 192.705 301.028 191.767C300.538 190.067 300.279 188.292 300.261 186.503L299.893 179.776C299.837 177.536 299.582 175.308 299.132 173.126C297.905 167.904 296.678 146.03 292.475 143.566C288.272 141.102 281.05 157.937 276.319 158.266C274.226 158.365 272.158 158.82 270.183 159.617C267.036 160.961 264.397 163.467 261.826 165.916L253.126 174.253C251.285 175.982 249.763 177.634 247.732 178.852Z" fill="#464353"/>
<path d="M205.972 36.042C207.887 33.0601 211.175 31.4781 214.415 31.3451C217.655 31.2121 220.845 32.3741 223.748 34.0191C224.604 34.5748 225.52 35.0029 226.472 35.293C228.006 35.65 229.712 35.174 231.098 35.993C232.939 37.106 233.295 39.9409 233.135 42.2928C232.976 44.6448 232.589 47.2557 233.688 49.2926C234.077 49.8736 234.432 50.4839 234.749 51.1196C235.222 52.3306 234.946 53.7305 234.663 55.0115C233.945 54.3115 233.54 53.2545 232.902 52.4426C232.264 51.6306 231.154 51.0846 230.362 51.6936C229.571 52.3026 229.583 53.4085 229.54 54.4025C229.497 55.3965 229.276 56.5864 228.454 56.9084C228.11 56.9976 227.751 56.9672 227.423 56.8212C227.095 56.6752 226.813 56.4203 226.613 56.0895C225.208 54.1295 225.773 51.0006 224.38 49.0267C223.588 47.9067 222.269 47.3607 221.539 46.1847C220.962 45.2608 220.815 44.0848 220.312 43.0908C219.809 42.0968 218.637 41.3689 217.857 42.0548C217.591 42.3447 217.37 42.683 217.201 43.0558C216.715 43.8498 216.008 44.4337 215.196 44.7132C214.383 44.9926 213.511 44.9512 212.722 44.5958C212.118 44.1732 211.466 43.8503 210.783 43.6368C210.336 43.6113 209.892 43.7288 209.5 43.9762C209.109 44.2236 208.786 44.591 208.568 45.0368C208.127 45.9274 207.915 46.9411 207.954 47.9627C207.954 49.3626 208.175 50.8536 207.476 51.9736C207.21 52.3952 206.877 52.7561 206.494 53.0375C205.469 53.7865 204.04 54.2905 203.095 53.4365C202.774 53.0962 202.536 52.6677 202.403 52.1921C202.27 51.7165 202.246 51.2097 202.334 50.7206C202.518 49.7463 202.76 48.7875 203.058 47.8507C203.598 45.6807 202.892 43.2378 203.481 41.1939C204.098 39.3531 204.937 37.6192 205.972 36.042Z" fill="#464353"/>
<path d="M213.746 85.4257C213.654 85.9358 213.701 86.4659 213.881 86.9446C214.064 87.2706 214.312 87.5419 214.605 87.7356C216.669 89.202 219.015 90.0696 221.441 90.2625C221.771 90.269 222.094 90.365 222.385 90.5425C222.962 90.9765 222.999 91.9425 222.784 92.7125C222.498 93.4388 222.35 94.226 222.349 95.0224C222.527 96.4854 224.048 97.1223 225.331 97.3393C227.128 97.5983 229.098 97.4653 230.522 96.1844C231.486 95.181 232.221 93.9244 232.663 92.5235C236.185 83.2907 237.418 73.085 240.983 63.8803C241.253 63.2792 241.434 62.631 241.517 61.9623C241.555 61.6276 241.513 61.2874 241.396 60.9772C241.28 60.667 241.093 60.3981 240.854 60.1983C240.192 59.7294 239.161 59.9954 238.713 59.2604C238.492 58.8894 238.516 58.3854 238.32 57.9934C237.909 57.1604 236.829 57.2934 236.093 56.8104C235.516 56.4605 235.117 55.7395 234.473 55.5995C234.157 55.5791 233.841 55.6431 233.55 55.7865C233.259 55.9299 233.002 56.1487 232.798 56.4255C230.706 58.6514 229.607 61.8083 228.441 64.7902C226.661 69.361 224.577 73.7698 222.208 77.9779C222.484 77.4879 220.882 73.778 220.256 73.617C219.158 73.365 217.753 75.5629 217.158 76.3819C215.29 78.9652 214.107 82.1024 213.746 85.4257Z" fill="#DF6B57"/>
<path opacity="0.1" d="M236.038 57.4614C235.597 57.4698 235.164 57.5912 234.769 57.8165C234.375 58.0419 234.031 58.3655 233.761 58.7634C233.105 59.7364 232.976 61.0243 232.81 62.2633C232.252 66.1886 231.024 69.9508 229.196 73.337" fill="black"/>
<path opacity="0.1" d="M239.167 60.2543C238.558 60.2698 237.964 60.4658 237.442 60.8229C236.921 61.1801 236.489 61.6862 236.191 62.2913C235.785 63.3923 235.532 64.5591 235.442 65.7492C234.916 68.3878 233.902 70.8675 232.467 73.022" fill="black"/>
<path d="M384.99 197.101V188.407C384.988 182.007 382.759 175.87 378.791 171.345C374.824 166.82 369.444 164.279 363.834 164.279H62.8796C57.2697 164.279 51.8894 166.82 47.9221 171.345C43.9547 175.87 41.725 182.007 41.7234 188.407V204.436L384.99 197.101Z" fill="#33323D"/>
<path d="M146.602 154.087C146.602 154.087 145.743 214.887 155.192 234.893C164.642 254.898 168.691 341.927 168.691 341.927C168.691 341.927 267.747 353.616 336.775 327.927C405.803 302.238 552.681 291.731 552.681 291.731L527.929 101.413C527.929 101.413 405.649 92.4675 336.088 130.315C266.526 168.163 146.602 154.087 146.602 154.087Z" fill="#8DD070"/>
<path opacity="0.1" d="M146.602 154.087C146.602 154.087 145.743 214.887 155.192 234.893C164.642 254.898 168.691 341.927 168.691 341.927C168.691 341.927 267.747 353.616 336.775 327.927C405.803 302.238 552.681 291.731 552.681 291.731L527.929 101.413C527.929 101.413 405.649 92.4675 336.088 130.315C266.526 168.163 146.602 154.087 146.602 154.087Z" fill="black"/>
<path d="M168.526 176.297C168.526 176.297 165.427 226.465 173.201 242.494C180.975 258.524 181.337 330.083 181.337 330.083C181.337 330.083 270.484 334.801 333.897 310.175C397.311 285.55 530.568 269.577 530.568 269.577L515.425 113.936C515.425 113.936 405.164 112.641 340.812 147.304C276.46 181.967 168.526 176.297 168.526 176.297Z" fill="#8DD070"/>
<path opacity="0.1" d="M339.833 281.679C352.517 279.877 360.053 253.256 356.665 222.221C353.276 191.186 340.247 167.488 327.562 169.291C314.878 171.093 307.343 197.713 310.731 228.748C314.12 259.783 327.149 283.481 339.833 281.679Z" fill="black"/>
<path opacity="0.2" d="M460.89 8.70078C460.89 8.70078 342.095 42.9998 286.075 103.373C230.055 163.747 112.125 192.334 112.125 192.334C112.125 192.334 127.661 250.495 142.031 266.231C156.401 281.966 183.656 363.388 183.656 363.388C183.656 363.388 281.074 339.827 339.855 291.192C398.636 242.557 535.63 181.134 535.63 181.134L460.89 8.70078Z" fill="black"/>
<path d="M110.34 183.626C110.34 183.626 125.87 241.794 140.227 257.53C154.585 273.266 181.852 354.68 181.852 354.68C181.852 354.68 279.283 331.126 338.07 282.491C396.857 233.857 533.838 172.454 533.838 172.454L459.098 0C459.098 0 340.309 34.2991 284.289 94.6724C228.27 155.046 110.34 183.626 110.34 183.626Z" fill="#8DD070"/>
<path opacity="0.1" d="M110.34 183.626C110.34 183.626 125.87 241.794 140.227 257.53C154.585 273.266 181.852 354.68 181.852 354.68C181.852 354.68 279.283 331.126 338.07 282.491C396.857 233.857 533.838 172.454 533.838 172.454L459.098 0C459.098 0 340.309 34.2991 284.289 94.6724C228.27 155.046 110.34 183.626 110.34 183.626Z" fill="black"/>
<path d="M137.159 197.094C137.159 197.094 147.707 245.931 159.42 258.461C171.133 270.991 190.713 338.959 190.713 338.959C190.713 338.959 276.822 312.233 330.553 266.595C384.284 220.956 506.828 159.169 506.828 159.169L450.557 16.2886C450.557 16.2886 345.273 53.6465 293.346 109.169C241.419 164.691 137.159 197.094 137.159 197.094Z" fill="#8DD070"/>
<path opacity="0.1" d="M328.567 237.418C340.154 231.263 340.166 203.289 328.593 174.937C317.02 146.585 298.245 128.592 286.658 134.748C275.07 140.903 275.058 168.877 286.631 197.229C298.204 225.581 316.979 243.574 328.567 237.418Z" fill="black"/>
<path opacity="0.1" d="M393.114 205.633V447.127C393.114 449.869 392.64 452.585 391.72 455.119C390.8 457.653 389.451 459.955 387.751 461.894C386.051 463.833 384.032 465.371 381.811 466.42C379.589 467.469 377.209 468.008 374.805 468.007H60.0386C55.1854 468.005 50.5315 465.805 47.1004 461.889C43.6692 457.973 41.7417 452.663 41.7417 447.127V181.288C50.7613 185.11 50.7613 185.11 60.0386 184.788H374.805C379.654 184.788 384.306 186.983 387.738 190.891C391.171 194.799 393.104 200.101 393.114 205.633Z" fill="black"/>
<path d="M393.114 208.706V450.2C393.112 455.738 391.182 461.049 387.749 464.965C384.315 468.88 379.659 471.08 374.805 471.08H60.0386C55.1854 471.078 50.5315 468.878 47.1004 464.962C43.6692 461.046 41.7417 455.736 41.7417 450.2V184.354C50.7613 188.169 50.7613 188.169 60.0386 187.854H374.805C379.655 187.854 384.307 190.05 387.74 193.959C391.173 197.869 393.106 203.173 393.114 208.706Z" fill="#504F60"/>
<path opacity="0.1" d="M392.218 297.989V375.218H326.565C317.667 375.081 309.174 370.953 302.924 363.726C296.674 356.499 293.17 346.755 293.17 336.603C293.17 326.451 296.674 316.707 302.924 309.481C309.174 302.254 317.667 298.126 326.565 297.989H392.218Z" fill="black"/>
<path d="M393.114 295.931V373.174H327.461C318.563 373.037 310.07 368.909 303.82 361.682C297.57 354.455 294.065 344.711 294.065 334.559C294.065 324.407 297.57 314.664 303.82 307.437C310.07 300.21 318.563 296.082 327.461 295.945L393.114 295.931Z" fill="#33323D"/>
<path opacity="0.1" d="M330.608 351.663C337.898 351.663 343.807 344.922 343.807 336.607C343.807 328.291 337.898 321.55 330.608 321.55C323.319 321.55 317.41 328.291 317.41 336.607C317.41 344.922 323.319 351.663 330.608 351.663Z" fill="black"/>
<path d="M331.504 349.619C338.793 349.619 344.702 342.878 344.702 334.563C344.702 326.247 338.793 319.506 331.504 319.506C324.215 319.506 318.306 326.247 318.306 334.563C318.306 342.878 324.215 349.619 331.504 349.619Z" fill="#DF6B57"/>
<path d="M507.074 295.266C507.595 301.713 503.319 307.971 504.564 314.284C504.834 315.635 505.343 316.909 505.527 318.274C506.043 322.026 504.086 325.575 502.214 328.711L486.138 355.618C485.495 356.801 484.724 357.887 483.844 358.852C480.776 361.974 476.162 361.652 472.124 362.583C469.286 363.24 466.606 364.592 464.27 366.545C464.173 366.64 464.111 366.774 464.097 366.92C464.083 367.066 464.119 367.212 464.197 367.329C464.864 368.365 465.748 369.195 466.768 369.741C467.789 370.288 468.913 370.534 470.038 370.458C470.461 371.095 470.038 372.026 469.425 372.481C468.559 373.181 467.375 373.349 467.203 375.015C467.142 375.596 467.245 376.185 467.498 376.695C468.146 377.826 469.153 378.627 470.308 378.928C475.873 380.867 481.886 377.458 486.052 372.817C490.219 368.176 493.207 362.317 497.293 357.592C499.557 354.981 502.128 352.741 504.46 350.207C509.111 345.154 512.725 339.008 516.216 332.855C517.265 331 518.321 329.096 518.762 326.947C519.204 324.798 518.996 322.628 519.493 320.549C520.143 317.819 521.892 315.649 523.346 313.36C526.199 308.881 528.101 303.4 527.727 297.884C527.352 292.368 524.352 286.915 519.787 285.039C518.372 284.391 516.812 284.283 515.339 284.731C513.467 285.389 512.087 287.153 510.81 288.84L507.742 292.865C506.978 293.748 506.373 294.795 505.963 295.945C505.767 296.522 505.72 297.152 505.829 297.759C505.938 298.366 506.197 298.925 506.577 299.368" fill="#FBBEBE"/>
<path opacity="0.05" d="M507.074 295.266C507.595 301.713 503.319 307.971 504.564 314.284C504.834 315.635 505.343 316.909 505.527 318.274C506.043 322.026 504.086 325.575 502.214 328.711L486.138 355.618C485.495 356.801 484.724 357.887 483.844 358.852C480.776 361.974 476.162 361.652 472.124 362.583C469.286 363.24 466.606 364.592 464.27 366.545C464.173 366.64 464.111 366.774 464.097 366.92C464.083 367.066 464.119 367.212 464.197 367.329C464.864 368.365 465.748 369.195 466.768 369.741C467.789 370.288 468.913 370.534 470.038 370.458C470.461 371.095 470.038 372.026 469.425 372.481C468.559 373.181 467.375 373.349 467.203 375.015C467.142 375.596 467.245 376.185 467.498 376.695C468.146 377.826 469.153 378.627 470.308 378.928C475.873 380.867 481.886 377.458 486.052 372.817C490.219 368.176 493.207 362.317 497.293 357.592C499.557 354.981 502.128 352.741 504.46 350.207C509.111 345.154 512.725 339.008 516.216 332.855C517.265 331 518.321 329.096 518.762 326.947C519.204 324.798 518.996 322.628 519.493 320.549C520.143 317.819 521.892 315.649 523.346 313.36C526.199 308.881 528.101 303.4 527.727 297.884C527.352 292.368 524.352 286.915 519.787 285.039C518.372 284.391 516.812 284.283 515.339 284.731C513.467 285.389 512.087 287.153 510.81 288.84L507.742 292.865C506.978 293.748 506.373 294.795 505.963 295.945C505.767 296.522 505.72 297.152 505.829 297.759C505.938 298.366 506.197 298.925 506.577 299.368" fill="black"/>
<path d="M519.241 461.231C515.731 463.674 511.357 463.821 507.276 463.254C506.62 463.163 505.84 463.107 505.436 463.688C504.822 464.528 505.546 465.788 506.295 466.439C508.701 468.501 511.529 469.828 514.51 470.296C517.173 470.727 519.859 470.93 522.548 470.905C529.911 471.052 537.274 471.192 544.52 469.988C544.95 469.951 545.368 469.813 545.748 469.582C546.215 469.208 546.539 468.645 546.656 468.007C547.153 465.851 546.196 463.541 544.748 462.043C543.299 460.545 541.44 459.712 539.624 458.907L533.243 456.073C531.746 455.408 529.347 453.644 527.721 453.784C524.665 454.036 521.775 459.537 519.241 461.231Z" fill="#3F3D56"/>
<path opacity="0.05" d="M519.241 461.231C515.731 463.674 511.357 463.821 507.276 463.254C506.62 463.163 505.84 463.107 505.436 463.688C504.822 464.528 505.546 465.788 506.295 466.439C508.701 468.501 511.529 469.828 514.51 470.296C517.173 470.727 519.859 470.93 522.548 470.905C529.911 471.052 537.274 471.192 544.52 469.988C544.95 469.951 545.368 469.813 545.748 469.582C546.215 469.208 546.539 468.645 546.656 468.007C547.153 465.851 546.196 463.541 544.748 462.043C543.299 460.545 541.44 459.712 539.624 458.907L533.243 456.073C531.746 455.408 529.347 453.644 527.721 453.784C524.665 454.036 521.775 459.537 519.241 461.231Z" fill="black"/>
<path d="M523.714 364.592C521.057 368.624 518.308 373.279 518.965 378.27C519.321 380.958 520.64 383.33 521.61 385.815C522.923 389.189 523.61 392.815 524.285 396.427C525.279 401.705 526.279 406.997 526.886 412.359C527.58 418.414 524.322 435.934 524.021 442.031C523.947 443.501 523.794 445.09 522.898 446.147C522.548 446.567 522.082 446.903 521.922 447.449C521.829 447.975 521.905 448.522 522.137 448.989C523.634 452.839 526.696 455.709 530.114 457.346C533.531 458.984 541.772 461.812 545.496 461.959C545.987 462.021 546.484 461.947 546.944 461.742C547.44 461.398 547.83 460.887 548.061 460.279C550.73 454.456 548.165 433.75 548.202 427.177C548.239 421.696 549.374 416.251 549.165 410.777C548.994 406.381 547.938 402.083 547.588 397.701C546.975 390.519 548.128 383.302 549.288 376.205C550.172 370.759 551.061 365.313 552.196 359.937C552.89 356.654 553.694 353.343 555.264 350.494C556.491 348.233 558.216 346.343 559.645 344.195C563.613 338.259 565.376 330.782 564.554 323.377C564.468 322.677 555.35 326.016 554.546 326.415C551.267 327.999 548.249 330.213 545.625 332.96C543.514 335.256 541.852 338.322 540.005 340.891C537.391 344.526 534.81 348.187 532.261 351.873C529.353 356.087 526.504 360.327 523.714 364.592Z" fill="#464353"/>
<path opacity="0.05" d="M523.714 364.347C521.057 368.379 518.308 373.041 518.965 378.025C519.321 380.72 520.64 383.093 521.61 385.577C522.923 388.944 523.61 392.577 524.285 396.182C525.279 401.467 526.279 406.759 526.886 412.114C527.58 418.176 524.322 435.689 524.021 441.786C523.947 443.256 523.794 444.852 522.898 445.909C522.548 446.322 522.082 446.658 521.922 447.204C521.828 447.73 521.905 448.277 522.137 448.744C523.634 452.601 526.696 455.464 530.114 457.143C533.531 458.823 541.772 460.286 545.496 460.426C545.987 460.488 546.484 460.414 546.944 460.209C547.441 459.869 547.831 459.36 548.061 458.753C550.73 452.93 548.165 433.554 548.202 426.974C548.239 421.486 549.374 416.048 549.165 410.567C548.994 406.171 547.938 401.873 547.588 397.498C546.975 390.309 548.128 383.093 549.288 375.995C550.172 370.556 551.061 365.11 552.196 359.727C552.89 356.444 553.694 353.133 555.264 350.284C556.492 348.023 558.216 346.134 559.645 343.985C563.615 338.05 565.378 330.572 564.554 323.167C564.468 322.467 555.35 325.806 554.546 326.205C551.268 327.794 548.251 330.01 545.625 332.757C543.514 335.046 541.852 338.112 540.005 340.681C537.391 344.316 534.81 347.979 532.261 351.67C529.353 355.852 526.504 360.077 523.714 364.347Z" fill="black"/>
<path d="M494.152 275.792C502.376 275.792 509.043 268.186 509.043 258.804C509.043 249.421 502.376 241.815 494.152 241.815C485.927 241.815 479.26 249.421 479.26 258.804C479.26 268.186 485.927 275.792 494.152 275.792Z" fill="#FBBEBE"/>
<path d="M507.565 258.09C508.94 260.594 510.744 262.755 512.868 264.446C514.993 266.137 517.394 267.322 519.928 267.932L518.805 272.587C516.866 280.58 514.688 289.036 509.276 294.58C509.89 291.871 509.105 288.98 507.767 286.628C506.429 284.276 504.552 282.428 502.711 280.601L494.14 272.132C493.892 271.902 493.684 271.622 493.526 271.306C493.314 270.708 493.314 270.041 493.526 269.444C494.618 265.566 497.735 263.144 500.275 260.526C501.55 259.172 502.688 257.66 503.668 256.018C505.38 253.232 506.442 256.032 507.565 258.09Z" fill="#FBBEBE"/>
<path d="M474.536 241.724L474.198 238.532C476.548 239.232 478.782 236.95 480.285 234.592C481.788 232.233 483.181 229.454 485.47 228.467C488.249 227.277 491.194 229.167 493.851 230.763C496.826 232.646 500.09 233.858 503.466 234.333C504.004 234.353 504.539 234.452 505.055 234.627C506.785 235.327 507.608 237.804 507.859 240.051C508.111 242.298 508.043 244.685 508.896 246.687C509.51 248.206 510.651 249.333 511.35 250.831C513.191 254.849 511.412 260.344 513.332 264.285L508.559 259.294C508.123 258.839 507.509 258.363 507.025 258.748C506.644 259.056 506.614 259.721 506.46 260.253C506 261.807 504.294 262.269 503.061 261.653C501.828 261.037 500.926 259.7 499.993 258.482C497.882 255.64 495.367 253.141 492.422 251.93C491.131 251.38 489.752 251.148 488.376 251.252C487.001 251.356 485.661 251.792 484.445 252.532C482.218 253.967 480.586 257.313 477.855 257.432C474.112 257.593 472.554 249.641 470.823 246.498C471.457 245.955 471.902 245.174 472.082 244.294C472.261 243.413 472.163 242.489 471.805 241.682C472.057 241.563 474.48 241.234 474.536 241.724Z" fill="#464353"/>
<path d="M290.346 142.404C289.149 143.618 288.043 144.943 287.038 146.366C286.027 147.808 285.489 149.608 285.517 151.455C285.522 151.99 285.672 152.511 285.946 152.946C286.086 153.154 286.28 153.307 286.5 153.383C286.72 153.46 286.955 153.456 287.173 153.373C287.42 153.229 287.631 153.018 287.787 152.757C288.435 151.868 289.124 151.017 289.849 150.209C290.112 149.908 290.462 149.593 290.818 149.705C290.978 149.769 291.121 149.878 291.235 150.02C291.648 150.427 291.949 150.962 292.1 151.56C292.315 152.631 291.769 153.702 291.149 154.542C290.53 155.382 289.799 156.187 289.548 157.244C289.453 157.523 289.453 157.833 289.548 158.112C289.666 158.314 289.832 158.474 290.026 158.574C290.905 159.126 291.879 159.45 292.88 159.525C293.881 159.6 294.884 159.424 295.819 159.008C297.046 158.441 298.138 157.468 299.402 156.964C299.949 156.793 300.48 156.558 300.985 156.264C301.347 155.989 301.657 155.636 301.898 155.224C302.139 154.812 302.306 154.349 302.39 153.863C302.55 152.891 302.581 151.898 302.482 150.916C302.329 147.113 301.616 143.367 300.371 139.835C300.299 139.607 300.177 139.405 300.016 139.247C299.831 139.119 299.618 139.053 299.402 139.058C297.831 138.869 295.254 137.952 293.739 138.617C293.209 138.949 292.751 139.413 292.401 139.975C292.119 140.332 290.346 141.935 290.346 142.404Z" fill="#A1616A"/>
<path d="M289.849 140.822C289.849 139.114 288.008 134.991 290.935 134.718C290.935 132.891 288.67 131.757 289.094 129.818C289.229 129.174 289.707 128.649 289.763 127.991C289.947 126.123 286.989 125.108 287.48 123.316C287.664 122.616 288.315 122.21 288.456 121.517C288.787 119.9 286.253 119.179 286.204 117.52C286.204 116.96 286.48 116.435 286.455 115.875C286.455 115.175 285.922 114.643 285.627 114.034C284.86 112.473 285.234 110.058 283.835 109.253C284.762 109.344 285.063 107.776 284.682 106.817C284.302 105.858 283.523 105.025 283.516 103.961C283.562 103.576 283.562 103.185 283.516 102.799C283.259 101.777 281.792 101.693 281.547 100.699C281.515 100.318 281.505 99.9343 281.516 99.5513C281.418 98.7603 280.706 98.2563 280.037 98.0323C279.343 97.8977 278.674 97.6253 278.062 97.2273C277.632 96.8563 277.135 96.2404 276.675 96.5273C276.503 96.6463 276.417 96.8703 276.288 97.0383C275.736 97.7733 274.681 97.4513 273.988 96.9123C271.938 95.3234 270.92 92.4745 270.484 89.6955C270.048 86.9166 270.061 84.0467 269.515 81.2958C269.348 80.4384 269.126 79.5962 268.852 78.7758C268.619 78.0759 267.87 76.9769 267.821 76.2699C267.711 74.6599 270.631 75.7589 271.742 75.9199C272.82 76.04 273.886 76.2744 274.926 76.6199C276.037 77.0984 277.124 77.6428 278.184 78.2508C282.614 80.4838 287.965 80.7568 291.524 84.5087C292.696 85.7406 293.683 87.3576 295.205 87.9176C295.903 88.0702 296.592 88.2736 297.267 88.5266C298.954 89.4295 299.218 91.9845 300.138 93.8324C300.428 94.3204 300.68 94.8356 300.893 95.3724C301.07 96.0054 301.153 96.6679 301.138 97.3323L301.267 102.183C301.476 110.31 301.684 118.458 300.924 126.536C300.678 129.202 300.31 131.946 301.003 134.508C301.187 135.208 301.445 135.866 301.617 136.573C301.769 137.402 301.847 138.246 301.85 139.093L301.948 142.236C301.982 142.48 301.934 142.731 301.813 142.936C301.711 143.031 301.591 143.099 301.462 143.134C301.334 143.169 301.2 143.171 301.071 143.139C297.236 142.747 293.358 140.283 289.738 141.774" fill="#464353"/>
<path d="M464.853 382.316C489.916 382.316 510.234 378.965 510.234 374.833C510.234 370.7 489.916 367.35 464.853 367.35C439.791 367.35 419.473 370.7 419.473 374.833C419.473 378.965 439.791 382.316 464.853 382.316Z" fill="#504F60"/>
<path d="M503.895 375.197C503.098 371.298 502.601 367.875 502.601 367.875C502.601 367.875 502.785 363.633 501.116 360.448V359.384V351.544C501.591 350.121 502.172 348.746 502.852 347.435C504.08 344.972 502.852 335.942 502.852 335.942C502.852 335.942 498.269 323.209 499.38 315.131C500.49 307.054 489.967 279.264 489.967 279.264C490.032 276.584 490.363 273.921 490.955 271.327C491.067 270.781 491.113 270.22 491.09 269.661C491.09 269.591 491.09 269.528 491.09 269.458C491.09 269.388 491.09 269.5 491.09 269.521C490.931 264.194 487.237 254.212 487.237 254.212L487.734 235.187C487.734 235.187 490.09 223.987 486.249 208.902C484.905 203.645 484.046 199.439 483.5 196.191C483.439 195.827 483.377 195.491 483.328 195.134C491.237 193.734 497.281 192.614 497.281 192.614C497.281 192.614 492.692 170.711 489.593 166.875C486.494 163.04 484.015 150.993 484.015 150.993C484.015 150.993 482.402 135.53 485.009 131.008C487.617 126.487 487.985 118.689 487.985 118.689C487.985 118.689 493.931 113.789 494.679 111.57C495.428 109.351 496.661 104.451 496.661 101.854C496.661 99.2573 495.919 96.9543 496.164 95.5544C496.41 94.1544 494.428 88.9816 495.422 86.5176C495.679 85.7608 495.812 84.9564 495.815 84.1447C495.817 84.1214 495.817 84.098 495.815 84.0747C495.824 81.9185 495.649 79.7665 495.293 77.6489C493.573 75.9921 491.566 74.7684 489.403 74.058L489.274 73.47L488.936 71.93C488.748 71.788 488.554 71.6572 488.353 71.538V70.9781L488.298 68.7521L489.231 63.7543C491.072 55.0605 480.892 53.7655 480.892 53.7655C480.275 52.432 479.248 51.4051 478.009 50.8816C475.965 50.0626 477.671 63.9573 478.622 64.8812C479.34 65.5812 481.561 69.9071 482.635 72.049L482.807 72.399C482.639 72.5714 482.483 72.7586 482.34 72.959L482.727 75.9759L482.788 76.4379C482.114 77.3936 481.566 78.4573 481.162 79.5948C481.162 79.5948 483.003 81.9188 482.653 84.4947C482.304 87.0706 483.224 90.3395 483.267 90.5145C483.156 90.3675 481.85 88.7576 480.543 89.1496C479.236 89.5415 475.585 90.7945 475.585 90.7945C475.585 90.7945 472.861 91.3405 473.131 92.0265C473.401 92.7125 471.29 95.7224 471.29 95.7224L463.964 87.7986C463.89 87.5606 463.81 87.3226 463.749 87.0986C463.45 85.9562 463.245 84.7845 463.135 83.5987C463.934 83.3822 464.717 83.0992 465.479 82.7517C466.249 82.4502 466.944 81.9412 467.504 81.2678C468.247 80.2668 468.388 78.9088 468.688 77.6629C469.265 75.2269 470.529 73.064 471.406 70.7471C472.892 66.832 473.371 62.5154 472.787 58.3014C472.675 57.0028 472.289 55.7543 471.664 54.6615C470.468 52.7856 468.296 52.0226 466.719 50.5246C465.142 49.0267 464.123 46.7377 462.283 45.6248C460.62 44.6098 458.601 44.7288 456.724 45.0788C453.056 45.7686 449.534 47.2308 446.336 49.3906C445.268 50.0906 444.09 50.9516 442.863 50.6926C441.807 50.4756 441.022 49.5166 440.359 48.5927C440.367 48.5544 440.377 48.517 440.39 48.4807C440.36 48.4466 440.333 48.409 440.31 48.3687C439.534 50.3345 439.144 52.4705 439.169 54.6265C439.169 54.9625 439.169 55.3265 439.206 55.6275V55.9775C439.206 56.0755 439.206 56.1735 439.206 56.2645C439.206 56.4137 439.187 56.5621 439.151 56.7055C438.996 57.1336 438.762 57.5182 438.463 57.8324C438.238 58.1243 438.033 58.4355 437.85 58.7634C437.85 58.6514 437.911 58.5394 437.948 58.4204C437.48 59.1998 437.216 60.1151 437.187 61.0593C437.153 61.7467 437.35 62.4229 437.739 62.9493C438.107 63.3562 438.507 63.7219 438.936 64.0413C438.79 64.9653 438.716 65.9023 438.715 66.8412C438.729 69.6246 439.372 72.357 440.582 74.7739C441.793 77.1908 443.529 79.2105 445.624 80.6378C445.71 80.8688 445.79 81.1068 445.869 81.3378C446.808 84.1377 447.514 87.4276 447.201 90.4375C447.201 90.6545 447.146 90.8785 447.115 91.0955C447.084 91.3125 446.931 91.3265 446.851 91.4455C446.851 91.4455 434.745 91.5855 431.898 88.6456C429.051 85.7057 424.707 95.8344 424.707 95.8344C424.707 95.8344 420.369 96.7934 419.498 95.8344C418.626 94.8754 413.552 95.7014 413.552 95.7014C411.473 93.5922 408.768 92.4658 405.987 92.5515C404.302 91.0906 402.442 89.912 400.464 89.0516L400.329 88.9956C399.457 88.6326 398.523 88.4986 397.599 88.6036C397.599 88.6036 391.647 83.0037 389.911 79.9798C388.174 76.9559 379.91 65.7912 379.873 65.7422V65.2032L379.781 63.5793C379.535 63.6232 379.287 63.6466 379.038 63.6493C378.995 63.4883 378.934 63.2993 378.873 63.0823C378.396 61.4983 377.81 59.9604 377.118 58.4834C377.118 58.4834 377.118 56.4325 377.639 55.9145C378.161 55.3965 377.425 47.8717 377.425 47.8717C377.425 47.8717 372.062 33.5711 367.258 44.2458C367.258 44.2458 358.177 51.1546 365.797 59.2044C365.797 59.2044 368.865 60.8843 369.27 62.2143C369.552 63.0753 370.583 65.4902 371.277 67.1142L371.589 67.8141L371.504 67.8981L371.614 69.2421L371.663 69.7601C370.227 70.6911 369.252 71.615 369.491 72.308C369.914 73.4939 370.204 74.7355 370.356 76.0039C370.356 76.0039 380.897 91.0675 382.26 97.5003C382.26 97.5003 410.527 116.666 419.823 118.031L418.178 127.586C417.939 130.178 417.816 132.783 417.81 135.39C417.933 137.441 416.694 146.751 416.694 146.751C416.694 146.751 415.08 160.443 413.718 162.361C412.356 164.278 412.601 172.489 412.601 172.489C412.279 176.42 411.664 180.312 410.76 184.123C409.398 189.324 410.386 195.764 410.386 195.764C410.386 195.764 405.68 208.083 416.957 199.733C416.957 199.733 422.48 199.341 428.873 199.089C428.873 199.327 428.873 199.572 428.873 199.789C428.873 200.727 428.873 201.741 428.83 202.805C428.744 209.861 428.708 219.605 428.99 226.941C429.487 239.946 432.96 265.685 432.96 265.685V278.641C432.735 279.857 432.624 281.095 432.628 282.337C432.555 286.896 433.619 291.385 435.696 295.28L436.567 303.904C436.567 303.904 438.605 309.588 438.641 313.003C438.633 313.279 438.605 313.553 438.555 313.822C438.476 314.257 438.443 314.701 438.457 315.145C438.341 319.065 440.408 328.445 440.408 328.445C440.408 328.445 440.531 337.888 441.771 338.441C442.832 338.91 440.353 343.88 439.617 345.308C439.597 345.22 439.583 345.131 439.574 345.042L439.421 345.322C439.165 346.086 439.034 346.897 439.034 347.715C438.964 348.36 439.056 349.014 439.3 349.602C439.543 350.189 439.927 350.686 440.408 351.033C442.765 352.678 444.029 354.043 442.028 354.589C441.292 354.72 440.563 354.895 439.844 355.114C439.844 355.009 439.77 354.897 439.74 354.799C439.457 354.925 439.222 355.158 439.073 355.459C438.925 355.76 438.872 356.111 438.924 356.451C438.943 357.562 439.193 358.651 439.654 359.629C441.636 364.697 443.01 366.629 443.01 366.629L443.961 366.51C443.821 366.925 443.635 367.317 443.409 367.679C443.047 368.266 442.567 368.746 442.01 369.079C441.49 369.434 440.911 369.66 440.31 369.744C439.638 369.769 438.978 369.955 438.374 370.29C437.769 370.626 437.233 371.102 436.801 371.69C435.573 373.517 434.788 376.002 437.23 378.186L446.096 381.686C446.096 381.686 461.35 383.946 460.54 380.041C459.73 376.135 459.239 372.719 459.239 372.719C459.305 370.334 458.885 367.964 458.012 365.796C457.852 365.442 457.672 365.101 457.472 364.774L458.012 364.711C458.012 364.711 459.129 356.08 460.614 354.442C460.957 354.064 461.037 353.742 460.957 353.546C461.111 353.077 460.718 352.804 460.221 352.643L460.11 352.986C459.625 352.866 459.129 352.802 458.632 352.797C458.632 352.797 458.135 348.282 459.748 346.638C459.879 346.45 459.974 346.234 460.027 346.003C460.081 345.771 460.093 345.53 460.061 345.294C460.074 344.674 460.016 344.055 459.89 343.453C459.874 343.491 459.855 343.529 459.834 343.565C459.024 339.463 456.276 332.946 456.276 332.946C456.276 332.946 456.153 328.844 457.147 327.199C458.141 325.554 457.018 304.884 457.018 304.884C457.018 304.884 457.392 294.895 456.276 290.24C455.159 285.585 457.638 280.104 457.638 280.104C457.638 280.104 457.638 279.999 457.638 279.81V279.74L457.497 278.165C457.493 278.198 457.493 278.231 457.497 278.263C457.245 275.617 456.773 270.823 456.423 268.611C455.926 265.461 456.552 250.411 456.552 250.411L458.779 243.971L462.749 255.066L466.964 269.85C466.964 269.85 469.05 272.972 469.099 276.149C469.099 276.303 469.099 276.457 469.099 276.611C469.065 276.939 469.049 277.269 469.05 277.598C468.976 279.466 469.425 281.313 470.333 282.869C470.333 282.869 471.449 289.869 473.186 291.626C474.922 293.383 474.922 296.827 474.922 296.827C474.922 296.827 477.027 306.963 477.99 308.727C478.825 310.225 478.868 314.326 478.861 315.607C478.861 315.838 478.861 315.971 478.861 315.971C478.861 315.971 479.156 319.597 479.144 322.635C479.144 323.013 479.144 323.377 479.144 323.72C479.147 323.695 479.147 323.669 479.144 323.643C479.143 324.473 479.057 325.3 478.886 326.107L478.849 326.247C478.849 326.072 478.849 325.904 478.892 325.736C478.461 327.799 478.255 329.915 478.279 332.036C478.223 335.676 478.708 339.988 480.641 342.536C483.991 346.918 486.096 346.372 486.096 346.372C486.096 346.372 484.488 351.845 482.5 352.944C482.425 352.985 482.355 353.037 482.291 353.098C482.291 352.986 482.255 352.881 482.242 352.776C482.021 353.049 481.852 353.372 481.746 353.724C481.64 354.076 481.6 354.45 481.629 354.82C481.488 357.228 482.819 361.12 484.083 362.933C484.552 363.457 485.128 363.842 485.758 364.053C485.658 364.133 485.554 364.206 485.445 364.27C485.224 364.408 484.997 364.532 484.764 364.641C484.441 364.797 484.1 364.899 483.752 364.942C483.079 364.962 482.418 365.147 481.812 365.482C481.207 365.818 480.672 366.297 480.242 366.888C479.015 368.708 478.229 371.193 480.671 373.377L489.538 376.877C489.538 376.877 504.693 379.096 503.895 375.197Z" fill="url(#paint0_linear)"/>
<path d="M445.661 381.665L437.071 378.165C434.702 375.981 435.457 373.496 436.653 371.669C437.065 371.086 437.582 370.611 438.168 370.275C438.754 369.94 439.397 369.751 440.053 369.723C440.634 369.638 441.193 369.411 441.691 369.058C442.235 368.72 442.702 368.241 443.053 367.658C443.68 366.523 444.018 365.212 444.029 363.871C444.029 363.871 453.453 360.721 456.03 363.871C456.49 364.441 456.875 365.085 457.172 365.782C458.028 367.956 458.447 370.322 458.399 372.705C458.399 372.705 458.877 376.121 459.657 380.027C460.436 383.932 445.661 381.665 445.661 381.665Z" fill="#2D293D"/>
<path d="M487.654 376.835L479.064 373.335C476.695 371.151 477.45 368.666 478.647 366.846C479.055 366.261 479.57 365.784 480.156 365.448C480.742 365.112 481.385 364.925 482.04 364.9C482.379 364.86 482.711 364.759 483.022 364.599C483.248 364.49 483.47 364.366 483.684 364.228C486.083 362.723 486.022 359.027 486.022 359.027C486.022 359.027 495.44 355.877 498.024 359.027C498.369 359.454 498.672 359.923 498.925 360.427C500.539 363.612 500.361 367.861 500.361 367.861C500.361 367.861 500.84 371.284 501.588 375.183C502.337 379.082 487.654 376.835 487.654 376.835Z" fill="#2D293D"/>
<path opacity="0.1" d="M456.036 363.864C456.496 364.434 456.881 365.078 457.177 365.775L443.065 367.644C443.692 366.509 444.03 365.198 444.041 363.857C444.041 363.857 453.459 360.714 456.036 363.864Z" fill="black"/>
<path opacity="0.1" d="M498.938 360.441V363.458C496.741 367.581 486.12 366.678 483.034 364.613C483.261 364.504 483.482 364.38 483.696 364.242C486.096 362.737 486.034 359.041 486.034 359.041C486.034 359.041 495.453 355.891 498.036 359.041C498.381 359.468 498.684 359.937 498.938 360.441Z" fill="black"/>
<path d="M500.613 347.436C499.956 348.75 499.396 350.124 498.938 351.544V362.359C496.532 366.874 484.058 365.369 482.371 362.905C480.684 360.441 478.923 354.029 480.819 352.916C482.715 351.803 484.298 346.344 484.298 346.344C484.298 346.344 482.255 346.889 479.015 342.508C475.775 338.126 476.738 328.41 477.34 326.086C477.941 323.762 477.34 315.957 477.34 315.957C477.34 315.957 477.462 310.476 476.505 308.699C475.548 306.921 473.505 296.799 473.505 296.799C473.505 296.799 473.505 293.376 471.824 291.598C470.142 289.82 469.063 282.834 469.063 282.834C468.08 281.089 467.657 279.008 467.866 276.947C468.222 273.525 465.823 269.829 465.823 269.829L461.743 255.038L457.902 243.95L455.742 250.383C455.742 250.383 455.128 265.44 455.625 268.583C456.122 271.726 456.852 280.083 456.852 280.083C456.852 280.083 454.453 285.557 455.533 290.212C456.613 294.867 456.22 304.87 456.22 304.87C456.22 304.87 457.3 325.533 456.337 327.178C455.374 328.823 455.496 332.932 455.496 332.932C455.496 332.932 460.405 344.972 458.859 346.617C457.313 348.261 457.779 352.776 457.779 352.776C457.779 352.776 461.135 352.776 459.699 354.421C458.264 356.066 457.178 364.69 457.178 364.69L442.666 366.629C442.666 366.629 441.341 364.718 439.421 359.629C437.5 354.54 439.776 355.114 441.709 354.561C443.642 354.008 442.421 352.65 440.138 351.005C437.856 349.36 439.181 345.665 439.181 345.665C439.181 345.665 442.66 338.959 441.458 338.413C440.255 337.867 440.138 328.417 440.138 328.417C440.138 328.417 437.739 317.217 438.341 314.179C438.942 311.141 436.42 303.918 436.42 303.918L435.58 295.294C433.012 290.4 432.075 284.615 432.941 278.998V265.699C432.941 265.699 429.579 239.967 429.1 226.962C428.793 218.632 428.879 207.264 428.977 200.174C429.039 196.198 429.1 193.559 429.1 193.559L480.935 187.399C480.935 187.399 480.886 190.129 481.874 196.184C482.408 199.432 483.236 203.638 484.537 208.895C488.255 223.952 485.979 235.173 485.979 235.173L485.494 254.205C485.494 254.205 490.053 266.931 489.096 271.313C488.517 273.914 488.192 276.581 488.126 279.264C488.126 279.264 498.324 307.054 497.244 315.131C496.164 323.209 500.601 335.942 500.601 335.942C500.601 335.942 501.815 344.972 500.613 347.436Z" fill="#464353"/>
<path opacity="0.05" d="M470.977 276.121L486.758 273.72C486.758 273.72 477.818 284.129 470.977 276.121Z" fill="black"/>
<path opacity="0.1" d="M484.476 256.13C484.476 256.13 485.016 262.5 481.598 264.894C481.598 264.894 487.715 263.802 484.476 256.13Z" fill="black"/>
<path opacity="0.1" d="M483.506 235.873C483.506 235.873 470.314 248.262 465.516 247.233C460.718 246.204 483.506 235.873 483.506 235.873Z" fill="black"/>
<path opacity="0.1" d="M451.416 281.931C451.416 281.931 441.396 284.528 441.096 289.12C440.795 293.712 451.416 281.931 451.416 281.931Z" fill="black"/>
<path opacity="0.05" d="M453.619 339.022C453.619 339.022 439.464 342.032 443.483 344.083C447.501 346.133 454.104 347.778 454.104 347.778C454.104 347.778 458.675 348.051 453.619 339.022Z" fill="black"/>
<g opacity="0.05">
<path opacity="0.05" d="M440.623 347.344C440.267 347.091 439.966 346.749 439.742 346.344C439.518 345.939 439.376 345.482 439.329 345.007L439.181 345.294C439.181 345.294 437.862 348.989 440.145 350.627C440.402 350.816 440.654 351.005 440.881 351.187C441.304 351.096 441.758 351.026 442.194 350.9C444.127 350.354 442.906 348.989 440.623 347.344Z" fill="black"/>
<path opacity="0.05" d="M458.859 346.245C459.251 345.84 459.239 344.79 459 343.446C458.386 344.503 458.208 346.154 458.196 347.407C458.345 346.973 458.571 346.577 458.859 346.245Z" fill="black"/>
<path opacity="0.05" d="M456.681 278.144C456.159 279.763 455.837 281.457 455.723 283.177C455.997 281.989 456.365 280.832 456.822 279.719L456.681 278.144Z" fill="black"/>
<path opacity="0.05" d="M489.102 270.963C489.196 270.471 489.24 269.968 489.231 269.465C489.053 270.487 488.93 271.432 488.838 272.265C488.918 271.838 489.004 271.432 489.102 270.963Z" fill="black"/>
<path opacity="0.05" d="M456.343 326.814C456.54 326.478 456.65 325.344 456.699 323.769C456.255 324.988 456.02 326.292 456.006 327.612C456.09 327.331 456.203 327.064 456.343 326.814Z" fill="black"/>
<path opacity="0.05" d="M459.288 352.629C458.544 355.375 457.992 358.184 457.638 361.029L443.127 362.94C443.127 362.94 441.801 361.029 439.881 355.94C439.726 355.547 439.589 355.145 439.47 354.736C438.599 355.191 438.243 356.22 439.396 359.223C441.317 364.291 442.648 366.223 442.648 366.223L457.159 364.305C457.159 364.305 458.239 355.681 459.675 354.036C460.411 353.245 459.957 352.832 459.288 352.629Z" fill="black"/>
<path opacity="0.05" d="M440.145 328.046C440.145 328.046 440.261 337.489 441.464 338.035C442.077 336.474 442.476 334.99 441.936 334.745C440.709 334.199 440.617 324.749 440.617 324.749C440.617 324.749 438.218 313.549 438.819 310.512C439.421 307.474 436.899 300.25 436.899 300.25L436.058 291.626C433.491 286.732 432.554 280.948 433.42 275.33V262.031C433.42 262.031 430.057 236.3 429.579 223.294C429.272 214.964 429.358 203.596 429.456 196.506C429.456 195.225 429.493 194.091 429.511 193.132L429.1 193.181C429.1 193.181 429.033 195.813 428.978 199.796C428.879 206.886 428.787 218.254 429.1 226.577C429.579 239.582 432.935 265.321 432.935 265.321V278.62C432.074 284.236 433.013 290.018 435.58 294.909L436.414 303.533C436.414 303.533 438.936 310.785 438.335 313.801C437.733 316.818 440.145 328.046 440.145 328.046Z" fill="black"/>
<path opacity="0.05" d="M482.862 359.251C481.683 357.304 480.897 355.083 480.561 352.748C479.082 354.274 480.782 360.196 482.402 362.548C484.077 365.012 496.557 366.517 498.969 361.995V359.391C495.698 363.052 484.445 361.582 482.862 359.251Z" fill="black"/>
<path opacity="0.05" d="M501.098 343.782C500.44 345.096 499.877 346.471 499.416 347.89V349.829C499.693 349.129 500.079 348.191 500.644 347.085C501.023 346.008 501.203 344.852 501.171 343.691C501.171 343.691 501.116 343.754 501.098 343.782Z" fill="black"/>
<path opacity="0.05" d="M483.598 345.945C484.055 344.89 484.45 343.803 484.783 342.69C484.783 342.69 482.739 343.236 479.5 338.854C477.143 335.669 477.008 329.649 477.346 325.715C476.732 328.046 475.781 337.762 479.021 342.144C481.138 345.007 482.739 345.763 483.598 345.945Z" fill="black"/>
<path opacity="0.05" d="M477.34 315.586C477.551 318.283 477.631 320.992 477.579 323.699C477.639 323.272 477.721 322.849 477.824 322.432C478.438 320.101 477.824 312.303 477.824 312.303C477.824 312.303 477.947 306.823 476.984 305.045C476.021 303.267 474.014 293.131 474.014 293.131C474.014 293.131 474.014 289.708 472.333 287.93C470.652 286.152 469.572 279.166 469.572 279.166C468.58 277.424 468.147 275.345 468.345 273.28C468.707 269.857 466.308 266.161 466.308 266.161L462.227 251.377L458.386 240.289L456.22 246.729C456.22 246.729 456.22 247.541 456.147 248.829L457.902 243.6L461.743 254.667L465.823 269.451C465.823 269.451 468.222 273.147 467.86 276.569C467.662 278.634 468.095 280.714 469.087 282.456C469.087 282.456 470.167 289.456 471.848 291.22C473.529 292.984 473.523 296.421 473.523 296.421C473.523 296.421 475.567 306.55 476.524 308.321C477.481 310.092 477.34 315.586 477.34 315.586Z" fill="black"/>
</g>
<path d="M487.415 63.7333L486.513 68.7311L486.568 70.9571L486.605 72.595L481.598 73.183L481.04 72C480.003 69.8581 477.849 65.5042 477.156 64.8322C476.229 63.9503 474.579 50.0486 476.542 50.8746C477.751 51.4072 478.743 52.4323 479.328 53.7515C479.328 53.7515 489.188 55.0395 487.415 63.7333Z" fill="#FFCDD3"/>
<path opacity="0.1" d="M486.605 72.595L481.598 73.183L481.04 72C481.713 71.1254 482.631 70.5441 483.638 70.3553C484.645 70.1664 485.678 70.3815 486.562 70.964L486.605 72.595Z" fill="black"/>
<path d="M487.869 75.3039L481.267 77.0469L481.126 75.9269L480.751 72.91C480.751 72.91 483.365 68.9341 487.145 71.916L487.476 73.449L487.869 75.3039Z" fill="#DF6B57"/>
<path d="M380.922 64.2792L373.872 68.5911L373.258 67.0792C372.59 65.4762 371.589 63.0613 371.313 62.1793C370.896 60.8493 367.957 59.1694 367.957 59.1694C360.594 51.1266 369.368 44.2108 369.368 44.2108C374.019 33.5361 379.186 47.8367 379.186 47.8367C379.186 47.8367 379.91 55.3755 379.4 55.8795C378.891 56.3835 378.891 58.4484 378.891 58.4484C379.563 59.9278 380.131 61.4656 380.591 63.0473C380.805 63.8103 380.922 64.2792 380.922 64.2792Z" fill="#FFCDD3"/>
<path opacity="0.1" d="M380.922 64.2792L373.872 68.5911L373.258 67.0792C374.252 66.1272 377.78 62.8793 378.94 63.0123C379.494 63.0911 380.053 63.1075 380.609 63.0613C380.805 63.8103 380.922 64.2792 380.922 64.2792Z" fill="black"/>
<path d="M381.64 66.7082L373.719 71.1601L373.559 69.2211L373.449 67.8771C373.449 67.8771 378.038 63.3903 379.394 63.5653C380.08 63.6786 380.776 63.6786 381.462 63.5653L381.554 65.1892L381.64 66.7082Z" fill="#DF6B57"/>
<path d="M468.216 96.9333C468.216 96.9333 433.684 101.378 440.138 98.9843C444.63 97.3114 446.415 94.0844 446.79 90.4445C447.096 87.4136 446.409 84.1447 445.507 81.3448C444.696 78.8609 443.668 76.476 442.439 74.226C442.439 74.226 468.823 57.6644 463.553 72.721C462.74 74.9984 462.235 77.4034 462.056 79.8538C461.897 82.2889 462.128 84.7366 462.737 87.0776C463.732 90.8761 465.628 94.2869 468.216 96.9333Z" fill="#FFCDD3"/>
<path opacity="0.1" d="M463.534 72.7C462.721 74.9774 462.217 77.3824 462.037 79.8328C459.552 82.2197 456.828 82.0588 453.324 82.0588C450.637 82.0588 447.655 82.8007 445.507 81.3238C444.696 78.8399 443.668 76.455 442.439 74.205C442.439 74.205 468.817 57.6434 463.534 72.7Z" fill="black"/>
<path d="M452.858 83.1087C460.743 83.1087 467.136 75.8161 467.136 66.8202C467.136 57.8242 460.743 50.5316 452.858 50.5316C444.972 50.5316 438.58 57.8242 438.58 66.8202C438.58 75.8161 444.972 83.1087 452.858 83.1087Z" fill="#FFCDD3"/>
<path opacity="0.1" d="M468.216 96.9333C468.216 96.9333 433.684 101.378 440.138 98.9843C444.63 97.3113 446.415 94.0844 446.79 90.4445C448.508 88.3446 451.962 86.7836 454.153 85.9716C456.178 85.1947 458.364 85.1531 460.411 85.8526C461.216 86.1293 461.982 86.5346 462.687 87.0566C463.693 90.8691 465.607 94.2882 468.216 96.9333Z" fill="black"/>
<path opacity="0.1" d="M487.869 75.3039L481.267 77.0469L481.125 75.9269C481.832 74.8192 482.821 73.9869 483.958 73.5435C485.094 73.1001 486.323 73.0671 487.476 73.449L487.869 75.3039Z" fill="black"/>
<path opacity="0.1" d="M381.64 66.7082L373.719 71.1601L373.559 69.2211C376.125 67.6473 378.791 66.2972 381.536 65.1822L381.64 66.7082Z" fill="black"/>
<path opacity="0.1" d="M481.874 196.198C468.492 198.634 449.471 201.741 446.452 200.691C443.943 199.824 435.942 199.915 428.977 200.188C429.039 196.212 429.1 193.573 429.1 193.573L480.935 187.413C480.935 187.413 480.886 190.143 481.874 196.198Z" fill="black"/>
<path d="M495.213 192.614C495.213 192.614 451.177 201.237 446.452 199.614C441.728 197.99 417.461 199.747 417.461 199.747C406.539 208.097 411.098 195.778 411.098 195.778C411.098 195.778 410.141 189.345 411.46 184.144C412.346 180.326 412.951 176.429 413.27 172.496C413.27 172.496 413.031 164.278 414.35 162.361C415.669 160.443 417.234 146.758 417.234 146.758C417.234 146.758 418.43 137.448 418.313 135.397C418.197 133.346 418.669 127.593 418.669 127.593L420.234 118.01C411.233 116.645 383.873 97.4793 383.873 97.4793C382.554 91.0465 372.356 75.9899 372.356 75.9899C372.208 74.7238 371.926 73.4828 371.516 72.294C370.798 70.1031 381.597 65.7212 381.597 65.7212C381.597 65.7212 389.635 76.9209 391.316 79.9588C392.997 82.9967 398.753 88.5826 398.753 88.5826C399.647 88.4776 400.55 88.6119 401.391 88.9746L401.532 89.0236C403.461 89.8874 405.269 91.0663 406.901 92.5235C409.607 92.4503 412.232 93.5798 414.221 95.6734C414.221 95.6734 419.13 94.8474 419.982 95.8064C420.835 96.7654 425.02 95.8064 425.02 95.8064C425.02 95.8064 429.217 85.6777 431.978 88.6176C434.739 91.5575 446.452 91.4175 446.452 91.4175C448.011 89.0516 451.809 87.3576 454.183 86.5176C456.209 85.7439 458.395 85.7024 460.442 86.3986C461.325 86.6992 462.155 87.173 462.896 87.7986L470.02 95.7364C470.02 95.7364 472.057 92.7195 471.818 92.0405C471.578 91.3615 474.217 90.8085 474.217 90.8085C474.217 90.8085 477.696 89.5765 479.015 89.1636C480.334 88.7506 481.543 90.3815 481.653 90.5285C481.61 90.3535 480.708 87.0286 481.04 84.5087C481.371 81.9888 479.598 79.6088 479.598 79.6088C483.795 67.8351 493.274 77.6909 493.274 77.6909C493.274 77.6909 494.354 84.1237 493.397 86.5876C492.44 89.0516 494.354 94.2524 494.115 95.6244C493.876 96.9963 494.6 99.3203 494.6 101.924C494.6 104.528 493.373 109.449 492.679 111.64C491.986 113.831 486.2 118.759 486.2 118.759C486.2 118.759 485.838 126.564 483.316 131.078C480.794 135.593 482.377 151.035 482.377 151.035C482.377 151.035 484.776 163.082 487.777 166.917C490.777 170.753 495.213 192.614 495.213 192.614Z" fill="#3F3D56"/>
<path opacity="0.1" d="M431.021 102.54C431.021 102.54 429.701 98.0253 428.499 97.6403C427.305 97.1393 426.142 96.5453 425.02 95.8624L425.793 94.1754C425.793 94.1754 430.297 95.5754 431.021 97.0943C431.745 98.6133 431.021 102.54 431.021 102.54Z" fill="black"/>
<path opacity="0.1" d="M406.901 92.5515C406.662 93.9514 395.979 95.1484 395.979 95.1484L401.379 88.9746L401.514 89.0306C403.45 89.899 405.265 91.0852 406.901 92.5515Z" fill="black"/>
<path d="M376.001 74.8559C376.53 74.8559 376.958 74.367 376.958 73.764C376.958 73.1609 376.53 72.672 376.001 72.672C375.472 72.672 375.044 73.1609 375.044 73.764C375.044 74.367 375.472 74.8559 376.001 74.8559Z" fill="#575988"/>
<path d="M377.228 77.0469C377.757 77.0469 378.185 76.558 378.185 75.9549C378.185 75.3518 377.757 74.8629 377.228 74.8629C376.7 74.8629 376.271 75.3518 376.271 75.9549C376.271 76.558 376.7 77.0469 377.228 77.0469Z" fill="#575988"/>
<path d="M378.431 79.0698C378.959 79.0698 379.388 78.5809 379.388 77.9779C379.388 77.3748 378.959 76.8859 378.431 76.8859C377.902 76.8859 377.474 77.3748 377.474 77.9779C377.474 78.5809 377.902 79.0698 378.431 79.0698Z" fill="#575988"/>
<path d="M379.689 81.2538C380.217 81.2538 380.646 80.7649 380.646 80.1618C380.646 79.5587 380.217 79.0698 379.689 79.0698C379.16 79.0698 378.731 79.5587 378.731 80.1618C378.731 80.7649 379.16 81.2538 379.689 81.2538Z" fill="#575988"/>
<path d="M492.796 80.9318C493.226 80.9318 493.575 80.5338 493.575 80.0428C493.575 79.5518 493.226 79.1538 492.796 79.1538C492.365 79.1538 492.017 79.5518 492.017 80.0428C492.017 80.5338 492.365 80.9318 492.796 80.9318Z" fill="#575988"/>
<path d="M492.918 82.9547C493.349 82.9547 493.698 82.5567 493.698 82.0657C493.698 81.5748 493.349 81.1768 492.918 81.1768C492.488 81.1768 492.139 81.5748 492.139 82.0657C492.139 82.5567 492.488 82.9547 492.918 82.9547Z" fill="#575988"/>
<path d="M493.023 84.9707C493.453 84.9707 493.802 84.5727 493.802 84.0817C493.802 83.5907 493.453 83.1927 493.023 83.1927C492.592 83.1927 492.244 83.5907 492.244 84.0817C492.244 84.5727 492.592 84.9707 493.023 84.9707Z" fill="#575988"/>
<path opacity="0.1" d="M431.064 139.639C430.947 139.478 458 178.446 478.996 155.928C479.015 155.935 445.839 161.066 431.064 139.639Z" fill="black"/>
<path opacity="0.1" d="M415.54 159.897C415.54 159.897 431.726 160.401 433.42 165.713V171.243C432.959 171.535 432.44 171.688 431.913 171.688C431.386 171.688 430.868 171.535 430.407 171.243C428.775 170.235 418.988 164.566 415.54 167.295V159.897Z" fill="black"/>
<path d="M415.841 159.897C415.841 159.897 431.321 160.38 432.941 165.447V170.711C432.5 170.991 432.004 171.137 431.499 171.137C430.995 171.137 430.498 170.991 430.057 170.711C428.499 169.759 419.142 164.348 415.841 166.952V159.897Z" fill="#3F3D56"/>
<path opacity="0.1" d="M424.376 119.802C426.029 124.169 428.137 128.293 430.653 132.086C433.389 136.279 436.704 139.937 440.47 142.915C440.47 142.915 424.646 122.336 424.376 119.802Z" fill="black"/>
<path opacity="0.1" d="M419.08 98.3473C419.08 98.3473 421.78 111.647 428.738 116.162L419.08 98.3473Z" fill="black"/>
<path opacity="0.1" d="M414.939 99.6913C414.871 99.4463 412.54 110.191 423.909 116.162C423.909 116.162 419.08 114.293 414.939 99.6913Z" fill="black"/>
<path opacity="0.1" d="M485.617 90.7735C485.439 90.7735 491.225 94.9734 492.802 96.9333C492.802 96.9333 489.035 90.4935 485.617 90.7735Z" fill="black"/>
<path d="M448.999 81.5827C449.001 81.9381 449.067 82.2891 449.195 82.6135C449.322 82.9379 449.506 83.2287 449.737 83.4675C449.968 83.7063 450.239 83.8879 450.535 84.0009C450.83 84.1138 451.143 84.1556 451.453 84.1237C455.803 84.4317 460.337 84.6487 464.338 82.7237C465.088 82.4182 465.762 81.9089 466.301 81.2397C467.013 80.2388 467.154 78.8808 467.443 77.6349C468.007 75.1989 469.21 73.036 470.075 70.719C471.539 66.8046 472.029 62.5058 471.492 58.2944C471.379 57.0034 471.005 55.76 470.4 54.6615C469.247 52.7785 467.142 52.0156 465.614 50.5176C464.086 49.0196 463.105 46.7307 461.319 45.6177C459.712 44.5958 457.742 44.7218 455.932 45.0717C452.372 45.7615 448.96 47.2228 445.882 49.3766C444.845 50.0766 443.709 50.9376 442.519 50.6786C441.476 50.4546 440.715 49.4536 440.065 48.5156C439.228 50.7557 438.877 53.1927 439.04 55.6205C439.085 55.9767 439.075 56.3393 439.01 56.6914C438.86 57.1172 438.631 57.5014 438.341 57.8184C437.267 59.2184 436.598 61.4933 437.66 62.9353C438.12 63.5582 438.832 63.9012 439.279 64.5382C440.083 65.6792 439.813 67.3381 439.795 68.7941C439.751 69.3025 439.863 69.8125 440.114 70.2361C440.346 70.4829 440.63 70.6571 440.939 70.7417C441.247 70.8264 441.57 70.8185 441.875 70.719C442.483 70.5102 443.121 70.4412 443.752 70.516C444.418 70.7628 444.992 71.2554 445.385 71.916C447.366 74.8629 448.152 78.0688 448.999 81.5827Z" fill="#2D293D"/>
<g opacity="0.1">
<path opacity="0.1" d="M466.811 80.0008C466.272 80.6699 465.598 81.1792 464.847 81.4848C460.822 83.3957 456.294 83.1787 451.962 82.8847C451.497 82.89 451.037 82.7726 450.618 82.5417C449.956 82.1007 449.704 81.1768 449.502 80.3368C448.655 76.8369 447.876 73.624 445.863 70.7051C445.475 70.0318 444.901 69.5265 444.231 69.2701C443.6 69.2022 442.963 69.271 442.354 69.4731C442.049 69.5735 441.727 69.5824 441.418 69.499C441.11 69.4156 440.825 69.2428 440.593 68.9971C440.342 68.5736 440.229 68.0635 440.274 67.5552C440.274 66.0852 440.562 64.4402 439.758 63.2993C439.31 62.6623 438.598 62.3193 438.138 61.6893C437.838 61.2249 437.654 60.6763 437.605 60.1019C437.557 59.5275 437.645 58.9488 437.862 58.4274C437.095 59.8274 436.77 61.5843 437.66 62.7883C438.12 63.4113 438.832 63.7543 439.28 64.3912C440.083 65.5392 439.813 67.1912 439.795 68.6471C439.748 69.1548 439.859 69.6651 440.108 70.0891C440.341 70.3371 440.626 70.512 440.936 70.5967C441.245 70.6813 441.569 70.6729 441.875 70.5721C442.483 70.3632 443.121 70.2942 443.752 70.3691C444.418 70.6158 444.992 71.1084 445.385 71.769C447.391 74.688 448.176 77.8939 449.023 81.4078C449.122 82.2724 449.501 83.0638 450.085 83.6267C450.505 83.858 450.968 83.9731 451.434 83.9627C455.785 84.2707 460.319 84.4947 464.32 82.5627C465.071 82.2592 465.745 81.7496 466.283 81.0788C466.554 80.6845 466.761 80.2391 466.897 79.7628C466.903 79.8538 466.86 79.9308 466.811 80.0008Z" fill="black"/>
<path opacity="0.1" d="M439.04 56.2645C439.233 56.0257 439.381 55.7446 439.476 55.4385C439.531 55.0843 439.531 54.7217 439.476 54.3675C439.356 52.3718 439.584 50.3688 440.145 48.4737L440.065 48.3687C439.225 50.6053 438.874 53.0408 439.04 55.4665C439.059 55.7321 439.059 55.9989 439.04 56.2645Z" fill="black"/>
</g>
<path opacity="0.1" d="M446.452 91.4525C446.452 91.4525 464.289 94.1544 465.89 91.0955L446.452 91.4525Z" fill="black"/>
<path opacity="0.1" d="M481.125 83.0317C481.125 83.0317 491.041 83.0317 493.219 87.2876L481.125 83.0317Z" fill="black"/>
<path d="M536.599 461.126C533.658 464.126 529.837 465.755 525.892 465.69C524.886 465.69 523.493 465.907 523.487 467.055C523.511 467.392 523.613 467.715 523.782 467.993C525.027 470.361 526.993 472.123 529.304 472.942C531.451 473.684 533.746 473.558 535.986 473.425L542.52 473.04C543.747 472.963 544.975 472.893 546.202 472.718C547.429 472.543 548.767 472.256 550.049 472.018C553.2 471.507 556.386 471.338 559.566 471.514C560.412 471.549 561.406 471.514 561.909 470.814C562.413 470.114 562.155 468.777 561.965 467.727C561.572 465.564 561.965 463.296 561.603 461.126C560.989 457.319 558.099 454.4 554.933 453.021C551.988 451.747 546.772 450.284 543.987 452.412C541.048 454.645 539.25 458.375 536.599 461.126Z" fill="#3F3D56"/>
<path d="M543.091 333.548C543.668 336.677 546.324 339.071 546.398 342.263C546.466 344.825 544.864 346.974 543.711 349.164C542.624 351.434 541.706 353.803 540.968 356.248C538.796 362.614 536.101 368.731 532.918 374.518C531.384 377.318 529.666 380.307 530.016 383.562C530.26 385.084 530.731 386.547 531.408 387.887L536.01 398.317C537.018 400.4 537.807 402.61 538.36 404.904C538.759 406.885 538.796 408.936 539.029 410.952C539.753 417.35 542.385 423.789 540.827 429.991C540.692 430.523 540.213 431.167 539.839 430.796C541.361 434.037 542.582 437.299 542.465 440.974C542.404 442.899 541.888 444.908 542.508 446.7C542.772 447.449 543.232 448.149 543.226 448.954C543.226 449.486 543.011 449.983 542.962 450.501C542.833 451.978 544.024 453.21 545.257 453.679C546.49 454.148 547.834 454.113 549.079 454.54C551.472 455.359 553.184 457.711 555.215 459.341C557.299 460.979 559.754 461.891 562.284 461.966C562.644 462.01 563.008 461.927 563.327 461.728C563.507 461.549 563.652 461.327 563.751 461.078C563.851 460.83 563.903 460.56 563.903 460.286C564.015 458.979 563.842 457.661 563.401 456.447C562.96 455.234 562.265 454.163 561.376 453.329C560.986 453.05 560.663 452.665 560.437 452.209C560.322 451.805 560.293 451.375 560.351 450.956C560.721 445.218 560.631 439.455 560.081 433.736C559.833 431.924 559.753 430.087 559.842 428.255C559.97 426.729 560.375 425.217 560.228 423.698C560.081 422.179 559.4 420.793 559.001 419.331C558.289 416.727 558.486 413.927 558.387 411.204C558.265 406.472 557.314 401.824 556.369 397.204C555.994 395.391 555.583 393.494 554.46 392.15C553.503 391.009 551.957 389.917 552.319 388.398C552.52 387.838 552.818 387.331 553.197 386.907C553.641 386.271 553.967 385.539 554.155 384.754C554.342 383.969 554.388 383.149 554.289 382.344C554.692 382.461 555.119 382.415 555.496 382.213C555.873 382.012 556.177 381.667 556.356 381.238C563.83 377.213 569.855 369.163 572.543 360.238C572.701 359.575 572.945 358.943 573.267 358.362C573.96 357.256 575.163 356.78 576.23 356.171C579.58 354.246 581.894 350.641 584.017 347.114C585.244 345.07 586.471 342.956 587.023 340.548C587.313 338.99 587.451 337.401 587.434 335.809L587.624 327.584C587.666 327.042 587.62 326.497 587.489 325.974C587.307 325.486 587.043 325.043 586.71 324.672C584.669 322.21 581.989 320.561 579.065 319.968C577.102 319.569 575.095 319.646 573.107 319.457C569.254 319.093 565.45 317.728 561.596 318.057C555.54 318.568 550.147 323.356 547.294 329.474C546.294 331.63 545.238 333.506 543.091 333.548Z" fill="#464353"/>
<path d="M509.467 280.069C509.548 281.339 509.398 282.614 509.025 283.814C508.553 284.962 507.368 285.858 506.331 285.389C506.644 284.584 505.816 283.667 505.043 283.765C504.663 283.865 504.309 284.069 504.013 284.359C503.717 284.649 503.487 285.017 503.343 285.431C502.831 286.607 502.659 287.938 502.852 289.232C503.098 290.842 503.914 292.389 503.699 294.006C503.527 295.35 502.662 296.687 503.122 297.933C503.421 298.502 503.796 299.015 504.233 299.452C504.839 300.304 505.136 301.388 505.062 302.482C504.987 303.576 504.548 304.596 503.834 305.332L515.443 305.598C515.02 307.81 515.891 310.071 516.885 312.037C519.669 317.445 523.513 322.044 528.116 325.472C532.72 328.9 537.956 331.066 543.416 331.798C543.121 331.995 542.868 332.264 542.675 332.585C542.482 332.907 542.354 333.274 542.301 333.659C542.247 334.045 542.27 334.438 542.366 334.813C542.462 335.187 542.63 335.532 542.858 335.823C543.803 336.894 545.404 336.761 546.588 336.068C547.773 335.375 548.699 334.227 549.779 333.338C551.685 331.797 554.011 331.082 556.338 331.322C557.792 331.483 559.203 332.022 560.664 332.106C564.959 332.365 568.64 328.837 572.776 327.395C575.789 326.338 579.206 326.338 581.734 324.189C582.826 323.265 583.722 321.746 583.403 320.248C583.139 319.387 582.721 318.598 582.176 317.931C580.722 315.782 579.863 313.199 578.82 310.756C576.753 305.92 573.908 301.57 570.432 297.933C567.808 295.317 565.028 292.912 562.112 290.737C561.407 290.143 560.655 289.625 559.866 289.19C558.848 288.679 557.719 288.434 556.798 287.79C555.436 286.81 554.651 285.081 553.602 283.688C551.301 280.622 547.766 279.215 544.932 276.807C543.03 275.19 541.348 273.063 539.078 272.286C537.974 271.901 536.802 271.873 535.697 271.495C533.188 270.627 531.359 268.086 528.899 267.057C526.954 266.245 524.806 266.455 522.763 266.168C520.46 265.844 518.26 264.888 516.351 263.382C515.736 262.81 515.047 262.352 514.308 262.024C511.197 260.946 510.945 267.554 510.626 269.843C510.215 273.245 509.467 276.625 509.467 280.069Z" fill="#DF6B57"/>
<path d="M512.498 302.231C513.019 308.685 508.749 314.935 509.994 321.256C510.258 322.6 510.768 323.881 510.952 325.246C511.473 328.991 509.51 332.54 507.638 335.676L491.563 362.59C490.917 363.772 490.146 364.858 489.268 365.824C486.2 368.939 481.586 368.624 477.548 369.548C474.712 370.213 472.034 371.564 469.695 373.51C469.589 373.603 469.52 373.739 469.502 373.889C469.483 374.04 469.517 374.193 469.596 374.315C470.263 375.35 471.146 376.179 472.165 376.726C473.184 377.272 474.307 377.519 475.432 377.444C475.855 378.074 475.432 379.012 474.849 379.467C473.99 380.167 472.799 380.328 472.627 382.001C472.569 382.582 472.672 383.169 472.922 383.681C473.572 384.808 474.579 385.606 475.732 385.906C481.297 387.852 487.31 384.436 491.477 379.796C495.643 375.155 498.631 369.296 502.717 364.578C504.982 361.96 507.552 359.727 509.884 357.193C514.535 352.132 518.155 345.994 521.64 339.841C522.689 337.986 523.751 336.082 524.187 333.933C524.622 331.784 524.42 329.607 524.917 327.528C525.567 324.805 527.316 322.628 528.77 320.346C531.623 315.866 533.531 310.386 533.151 304.863C532.771 299.34 529.776 293.894 525.211 292.018C523.795 291.376 522.236 291.268 520.763 291.71C518.891 292.368 517.511 294.132 516.235 295.826L513.167 299.844C512.42 300.734 511.834 301.782 511.443 302.931C511.245 303.509 511.197 304.14 511.306 304.749C511.415 305.357 511.675 305.917 512.056 306.361" fill="#FBBEBE"/>
<path d="M520.646 275.757C518.535 275.897 516.21 276.135 514.719 277.857C514.094 278.648 513.588 279.552 513.222 280.531C511.774 283.898 510.362 287.419 510.258 291.171C510.172 294.167 510.933 297.1 511.332 300.061C511.663 302.525 510.823 305.038 510.663 307.53C513.283 306.613 516.744 305.367 519.118 303.82C520.738 302.763 522.303 301.559 524.07 300.887C526.592 299.928 530.819 301.587 533.218 302.917C533.347 300.999 532.083 297.653 532.218 295.728C532.237 294.918 532.363 294.115 532.592 293.348C532.951 292.536 533.377 291.765 533.863 291.045C534.776 289.351 535.196 287.371 535.062 285.388C534.929 283.405 534.249 281.521 533.12 280.006C530.991 277.276 527.659 276.254 524.481 275.806C522.479 275.542 520.462 275.462 518.449 275.568" fill="#DF6B57"/>
<defs>
<linearGradient id="paint0_linear" x1="433.322" y1="382.316" x2="433.322" y2="40.2629" gradientUnits="userSpaceOnUse">
<stop stop-color="#808080" stop-opacity="0.25"/>
<stop offset="0.54" stop-color="#808080" stop-opacity="0.12"/>
<stop offset="1" stop-color="#808080" stop-opacity="0.1"/>
</linearGradient>
</defs>
</svg>
